<svg aria-hidden="true" style="position: absolute; width: 0; height: 0; overflow: hidden;" version="1.1" xmlns="http://www.w3.org/2000/svg" xmlns:xlink="http://www.w3.org/1999/xlink">
<defs>
<symbol id="icon-idea" viewBox="0 0 32 32">
<path d="M16 0c-6.076 0-11 4.924-11 11 0 4.031 3.688 8.303 5.031 12.055 2.003 5.595 1.781 8.945 5.969 8.945 4.25 0 3.965-3.334 5.969-8.922 1.347-3.76 5.031-8.078 5.031-12.078 0-6.076-4.926-11-11-11zM18.592 27.176l-4.958 0.619c-0.177-0.512-0.367-1.111-0.598-1.893-0.003-0.010-0.007-0.021-0.009-0.031l6.188-0.773c-0.088 0.295-0.182 0.605-0.264 0.883-0.131 0.449-0.248 0.839-0.359 1.195zM12.736 24.908c-0.182-0.602-0.387-1.236-0.615-1.908h7.766c-0.123 0.359-0.246 0.719-0.352 1.059l-6.799 0.849zM16 30c-1.013 0-1.479-0.117-1.997-1.25l4.238-0.531c-0.614 1.654-1.061 1.781-2.241 1.781zM20.672 21h-9.333c-0.498-1.080-1.096-2.16-1.686-3.217-1.305-2.335-2.653-4.75-2.653-6.783 0-4.963 4.037-9 9-9s9 4.037 9 9c0 2.018-1.35 4.446-2.656 6.795-0.584 1.053-1.178 2.131-1.672 3.205zM16 5c0.275 0 0.5 0.224 0.5 0.5s-0.224 0.5-0.5 0.5c-2.757 0-5 2.243-5 5 0 0.276-0.224 0.5-0.5 0.5s-0.5-0.224-0.5-0.5c0-3.309 2.691-6 6-6z"></path>
</symbol>
<symbol id="icon-quote" viewBox="0 0 32 32">
<path d="M6.67 26.060c0.090 0 8.77-0.14 8.77-11.89 0-0.007 0-0.016 0-0.025 0-3.987-3.232-7.22-7.22-7.22s-7.22 3.233-7.22 7.22c0 3.071 1.917 5.694 4.621 6.738l0.049 0.017v4.16c0 0.552 0.448 1 1 1v0zM3 14.17c0-2.883 2.337-5.22 5.22-5.22s5.22 2.337 5.22 5.22v0c0 7.5-3.88 9.31-5.77 9.75v-3.75c0-0.009 0-0.020 0-0.032 0-0.464-0.316-0.854-0.744-0.967l-0.007-0.002c-2.256-0.591-3.897-2.6-3.92-4.997l-0-0.003z"></path>
<path d="M22.22 26.060c0.090 0 8.78-0.14 8.78-11.89 0-0.006 0-0.014 0-0.021 0-3.988-3.233-7.22-7.22-7.22s-7.22 3.232-7.22 7.22c0 3.067 1.913 5.688 4.611 6.734l0.049 0.017v4.16c0 0.552 0.448 1 1 1v0zM18.56 14.17c0-2.883 2.337-5.22 5.22-5.22s5.22 2.337 5.22 5.22v0c0 7.5-3.89 9.31-5.78 9.75v-3.75c0-0.009 0-0.020 0-0.032 0-0.464-0.316-0.854-0.744-0.967l-0.007-0.002c-2.252-0.594-3.889-2.603-3.91-4.998l-0-0.002z"></path>
</symbol>
<symbol id="icon-task" viewBox="0 0 32 32">
<path d="M11.333 25.333c-1.105 0-2 0.895-2 2s0.895 2 2 2c1.105 0 2-0.895 2-2v0c0-1.105-0.895-2-2-2v0zM25.333 21.333h-16c-0.736 0-1.333-0.597-1.333-1.333s0.597-1.333 1.333-1.333v0h11.322c1.816-0.006 3.347-1.216 3.839-2.873l0.007-0.028 2.114-7.399c0.033-0.11 0.051-0.236 0.051-0.366 0-0.736-0.597-1.333-1.333-1.333h-16.348c-0.566-1.561-2.032-2.658-3.756-2.667h-1.23c-0.736 0-1.333 0.597-1.333 1.333s0.597 1.333 1.333 1.333v0h1.229c0.605 0.002 1.115 0.405 1.279 0.957l0.002 0.009 0.207 0.726 0 0.007 2.187 7.656c-2.017 0.223-3.572 1.919-3.572 3.977 0 2.209 1.791 4 4 4h16c0.736 0 1.333-0.597 1.333-1.333s-0.597-1.333-1.333-1.333v0zM23.566 9.333l-1.628 5.699c-0.166 0.562-0.677 0.966-1.282 0.967h-8.983l-0.34-1.19-1.564-5.477zM22 25.333c-1.105 0-2 0.895-2 2s0.895 2 2 2c1.105 0 2-0.895 2-2v0c0-1.105-0.895-2-2-2v0z"></path>
</symbol>
<symbol id="icon-thought" viewBox="0 0 32 32">
<path d="M13.87 10.133c1.536 0 2.786 1.25 2.786 2.786s-1.25 2.786-2.786 2.786-2.786-1.25-2.786-2.786 1.25-2.786 2.786-2.786z"></path>
<path d="M3.539 26.273c0.123 1.457 1.437 2.076 3.625 1.725 2.085-0.335 3.132 0.62 3.4 1.77 0 0 0.078 0.616 0.125 1.315 0.035 0.515 0.462 0.916 0.978 0.916h12.836c0.542 0 0.981-0.439 0.981-0.981v-3.549c0-1.748 0.174-4.343 1.427-5.723 3.474-3.824 5.386-8.838 3.446-13.889-2.256-5.875-8.556-8.502-14.537-7.724-2.17 0.282-4.284 1.028-6.109 2.244-3.33 2.218-5.707 5.922-6.055 9.937-0.102 1.178 0.457 2.604 0.176 3.725-0.057 0.227-0.365 1.285-2.671 3.558-0.552 0.544-0.285 1.483 0.47 1.655 1.027 0.234 1.734 0.374 1.841 0.435 0 0 0.026 4.105 0.067 4.585zM19.306 9.405l0.158-0.384c-0.122-0.213-0.227-0.459-0.303-0.718l-0.006-0.024-0.382-0.159c-0.13-0.055-0.22-0.182-0.22-0.33 0-0 0-0 0-0v0-0.878c0-0.148 0.090-0.275 0.218-0.329l0.002-0.001 0.382-0.159c0.074-0.261 0.178-0.51 0.309-0.742l-0.158-0.384c-0.017-0.040-0.027-0.087-0.027-0.136 0-0.099 0.040-0.188 0.105-0.253l0.621-0.621c0.065-0.065 0.154-0.105 0.253-0.105 0.049 0 0.096 0.010 0.139 0.028l-0.002-0.001 0.384 0.158c0.213-0.122 0.459-0.227 0.718-0.303l0.024-0.006 0.159-0.382c0.055-0.13 0.182-0.22 0.33-0.22 0 0 0 0 0 0h0.878c0.148 0 0.275 0.090 0.329 0.218l0.001 0.002 0.159 0.382c0.261 0.074 0.51 0.178 0.742 0.309l0.384-0.158c0.040-0.017 0.087-0.027 0.136-0.027 0.099 0 0.188 0.040 0.253 0.105l0.621 0.621c0.065 0.065 0.105 0.154 0.105 0.253 0 0.049-0.010 0.096-0.028 0.139l0.001-0.002-0.158 0.384c0.122 0.213 0.227 0.459 0.303 0.718l0.006 0.024 0.382 0.159c0.13 0.055 0.22 0.182 0.22 0.33 0 0 0 0 0 0v0 0.878c-0 0.148-0.090 0.275-0.218 0.329l-0.002 0.001-0.382 0.159c-0.081 0.283-0.186 0.529-0.317 0.759l0.009-0.017 0.158 0.384c0.017 0.040 0.027 0.087 0.027 0.136 0 0.099-0.040 0.188-0.105 0.253l-0.621 0.621c-0.065 0.065-0.154 0.105-0.253 0.105-0.049 0-0.096-0.010-0.139-0.028l0.002 0.001-0.384-0.158c-0.213 0.122-0.459 0.227-0.718 0.303l-0.024 0.006-0.159 0.382c-0.055 0.13-0.182 0.22-0.33 0.22 0 0-0 0-0 0h-0.878c-0.148 0-0.275-0.090-0.329-0.218l-0.001-0.002-0.159-0.382c-0.283-0.081-0.529-0.186-0.759-0.317l0.017 0.009-0.384 0.158c-0.040 0.017-0.087 0.027-0.136 0.027-0.099 0-0.188-0.040-0.253-0.105l-0.621-0.621c-0.065-0.065-0.105-0.154-0.105-0.253 0-0.049 0.010-0.096 0.028-0.139l-0.001 0.002zM8.53 12.317c0 0 0 0 0-0 0-0.203 0.123-0.377 0.299-0.451l0.003-0.001 0.523-0.218c0.111-0.388 0.255-0.726 0.435-1.041l-0.012 0.023-0.217-0.526c-0.023-0.055-0.037-0.119-0.037-0.187 0-0.135 0.055-0.258 0.144-0.347l0.852-0.852c0.089-0.089 0.211-0.144 0.347-0.144 0.067 0 0.132 0.014 0.19 0.038l-0.003-0.001 0.526 0.217c0.292-0.168 0.63-0.312 0.985-0.415l0.033-0.008 0.218-0.524c0.076-0.179 0.25-0.302 0.453-0.302 0 0 0 0 0 0h1.204c0 0 0 0 0 0 0.203 0 0.377 0.123 0.451 0.299l0.001 0.003 0.218 0.523c0.388 0.111 0.726 0.255 1.041 0.435l-0.023-0.012 0.526-0.217c0.055-0.023 0.119-0.037 0.187-0.037 0.135 0 0.258 0.055 0.347 0.144l0.852 0.852c0.089 0.089 0.144 0.211 0.144 0.347 0 0.067-0.014 0.132-0.038 0.19l0.001-0.003-0.217 0.526c0.168 0.292 0.312 0.63 0.415 0.985l0.008 0.033 0.523 0.218c0.179 0.076 0.302 0.25 0.302 0.453 0 0 0 0 0 0v0 1.204c0 0 0 0 0 0 0 0.203-0.123 0.377-0.299 0.451l-0.003 0.001-0.523 0.218c-0.111 0.388-0.255 0.726-0.435 1.041l0.012-0.023 0.217 0.526c0.023 0.055 0.037 0.119 0.037 0.187 0 0.135-0.055 0.258-0.144 0.347l-0.852 0.852c-0.089 0.089-0.211 0.144-0.347 0.144-0.067 0-0.132-0.014-0.19-0.038l0.003 0.001-0.526-0.217c-0.292 0.168-0.63 0.312-0.985 0.415l-0.033 0.008-0.218 0.523c-0.076 0.179-0.25 0.302-0.453 0.302-0 0-0 0-0 0h-1.204c0 0 0 0-0 0-0.203 0-0.377-0.123-0.451-0.299l-0.001-0.003-0.218-0.523c-0.388-0.111-0.726-0.255-1.041-0.435l0.023 0.012-0.526 0.217c-0.055 0.023-0.119 0.037-0.187 0.037-0.135 0-0.258-0.055-0.347-0.144l-0.852-0.852c-0.089-0.089-0.144-0.211-0.144-0.347 0-0.067 0.014-0.132 0.038-0.19l-0.001 0.003 0.217-0.526c-0.168-0.292-0.312-0.63-0.415-0.985l-0.008-0.033-0.523-0.218c-0.179-0.076-0.302-0.25-0.302-0.453 0 0 0 0 0-0v0-0.602l-0-0.602z"></path>
<path d="M22.449 5.318c1.121 0 2.032 0.912 2.032 2.032s-0.912 2.032-2.032 2.032-2.032-0.912-2.032-2.032c0-1.121 0.912-2.032 2.032-2.032z"></path>
</symbol>
<symbol id="icon-archive" viewBox="0 0 32 32">
<path d="M26 2h-20l-6 6v21c0 0.552 0.448 1 1 1h30c0.552 0 1-0.448 1-1v-21l-6-6zM16 26l-10-8h6v-6h8v6h6l-10 8zM4.828 6l2-2h18.343l2 2h-22.343z"></path>
</symbol>
<symbol id="icon-delete" viewBox="0 0 32 32">
<path d="M4 10v20c0 1.1 0.9 2 2 2h18c1.1 0 2-0.9 2-2v-20h-22zM10 28h-2v-14h2v14zM14 28h-2v-14h2v14zM18 28h-2v-14h2v14zM22 28h-2v-14h2v14z"></path>
<path d="M26.5 4h-6.5v-2.5c0-0.825-0.675-1.5-1.5-1.5h-7c-0.825 0-1.5 0.675-1.5 1.5v2.5h-6.5c-0.825 0-1.5 0.675-1.5 1.5v2.5h26v-2.5c0-0.825-0.675-1.5-1.5-1.5zM18 4h-6v-1.975h6v1.975z"></path>
</symbol>
<symbol id="icon-edit" viewBox="0 0 32 32">
<path d="M27 0c2.761 0 5 2.239 5 5 0 1.126-0.372 2.164-1 3l-2 2-7-7 2-2c0.836-0.628 1.874-1 3-1zM2 23l-2 9 9-2 18.5-18.5-7-7-18.5 18.5zM22.362 11.362l-14 14-1.724-1.724 14-14 1.724 1.724z"></path>
</symbol>
<symbol id="icon-unarchive" viewBox="0 0 32 32">
<path d="M26 2h-20l-6 6v21c0 0.552 0.448 1 1 1h30c0.552 0 1-0.448 1-1v-21l-6-6zM20 20v6h-8v-6h-6l10-8 10 8h-6zM4.828 6l2-2h18.343l2 2h-22.343z"></path>
</symbol>
</defs>
</svg>
